<?xml version="1.0" standalone="no"?>
<!DOCTYPE svg PUBLIC "-//W3C//DTD SVG 20010904//EN"
 "http://www.w3.org/TR/2001/REC-SVG-20010904/DTD/svg10.dtd">
<svg version="1.0" xmlns="http://www.w3.org/2000/svg"
 width="600.000000pt" height="600.000000pt" viewBox="0 0 600.000000 600.000000"
 preserveAspectRatio="xMidYMid meet">

<g transform="translate(0.000000,600.000000) scale(0.100000,-0.100000)"
fill="#000000" stroke="none">
<path d="M1040 3364 c95 -63 150 -125 150 -169 0 -35 -178 -325 -292 -478 -32
-43 -58 -80 -58 -84 0 -3 160 -4 355 -1 l355 6 112 -134 111 -134 1218 -2
c671 -2 1267 -3 1327 -3 l107 0 70 115 c39 64 82 131 96 150 15 19 99 150 186
290 88 140 192 306 231 368 l71 112 -2047 0 -2047 0 55 -36z m3960 -9 c0 -3
-46 -72 -103 -153 -175 -251 -299 -440 -397 -611 l-95 -164 -599 7 c-330 3
-911 6 -1292 6 l-692 0 -118 131 -118 131 -303 -7 c-167 -4 -303 -5 -303 -2 0
4 32 46 71 94 64 80 142 192 227 329 18 28 32 60 32 72 0 31 -62 96 -126 133
-30 17 -54 32 -54 35 0 2 871 4 1935 4 1064 0 1935 -2 1935 -5z"/>
<path d="M1220 3331 c0 -6 4 -11 10 -11 20 0 77 -61 95 -101 l19 -41 -24 -42
c-47 -83 -171 -267 -230 -341 l-61 -76 1043 6 c574 4 1360 2 1748 -3 650 -9
706 -9 719 6 25 31 411 595 411 601 0 4 -839 8 -1865 10 -1338 2 -1865 0
-1865 -8z m864 -89 c2 -4 -39 -74 -92 -155 l-96 -147 -48 0 -47 0 -3 -72 -3
-73 -97 -3 -98 -3 0 76 0 75 -40 0 c-38 0 -41 -3 -90 -75 l-51 -75 -94 0 c-51
0 -96 3 -98 8 -2 4 51 90 118 192 119 179 122 186 109 212 -8 15 -14 32 -14
38 0 12 636 15 644 2z m666 -2 c0 -6 -66 -109 -147 -230 l-146 -220 -93 0
c-51 0 -95 4 -98 8 -3 5 5 24 18 43 12 19 31 46 41 62 l17 27 -84 0 -85 0 -47
-70 -46 -70 -95 0 c-59 0 -95 4 -95 10 0 6 54 93 119 192 116 178 119 183 105
210 -8 15 -14 32 -14 38 0 7 105 10 325 10 211 0 325 -4 325 -10z m660 -3 c0
-7 -16 -36 -35 -65 l-36 -52 -189 0 c-179 0 -190 -1 -200 -20 -11 -20 -8 -20
170 -20 115 0 180 -4 180 -10 0 -6 -16 -35 -36 -65 l-37 -55 -188 0 -189 0
-52 -80 -53 -80 -97 0 c-55 0 -98 4 -98 9 0 6 54 92 121 192 l121 182 -16 34
c-9 19 -16 36 -16 38 0 3 146 5 325 5 255 0 325 -3 325 -13z m663 7 c3 -4 -12
-33 -34 -65 l-40 -59 -187 0 c-176 0 -188 -1 -200 -20 -12 -20 -10 -20 173
-20 102 0 185 -2 185 -6 0 -3 -18 -32 -40 -65 l-41 -59 -188 0 -188 0 -53 -80
-53 -80 -93 0 c-51 0 -95 4 -98 8 -3 5 50 90 116 190 l121 183 -16 33 c-8 19
-13 37 -10 40 8 8 638 8 646 0z m663 -10 c-3 -8 -70 -112 -148 -230 l-142
-214 -98 0 c-54 0 -98 4 -98 9 0 5 15 31 33 57 18 27 37 55 41 62 5 9 -12 12
-77 12 l-84 0 -47 -70 -46 -70 -95 0 c-69 0 -95 3 -95 13 0 6 54 93 119 191
118 176 120 180 105 207 -8 15 -14 33 -14 39 0 7 105 10 326 10 292 0 326 -2
320 -16z"/>
<path d="M1625 3098 l-15 -23 82 -3 c69 -2 85 0 95 14 7 10 13 21 13 26 0 4
-36 8 -79 8 -71 0 -82 -2 -96 -22z"/>
<path d="M2286 3098 c-9 -12 -16 -26 -16 -30 0 -5 37 -8 83 -8 81 0 82 1 99
30 l17 30 -84 0 c-75 0 -85 -2 -99 -22z"/>
<path d="M4270 3090 l-21 -30 85 0 c76 0 86 2 100 22 9 12 16 26 16 30 0 5
-36 8 -79 8 -77 0 -80 -1 -101 -30z"/>
<path d="M2508 2663 c8 -13 -2 -34 -39 -90 -76 -113 -88 -103 120 -103 l182 0
64 100 c36 55 65 102 65 105 0 3 -18 5 -40 5 -39 0 -41 -2 -92 -80 -41 -62
-58 -80 -77 -80 -29 0 -26 10 29 90 22 32 40 61 40 64 0 4 -18 6 -39 6 -38 0
-42 -3 -93 -77 -37 -55 -60 -79 -77 -81 -30 -5 -26 7 29 88 22 32 40 61 40 64
0 4 -27 6 -60 6 -54 0 -60 -2 -52 -17z"/>
<path d="M2917 2661 c3 -13 -15 -50 -51 -105 l-56 -86 125 0 c117 0 125 1 140
23 l15 22 -75 3 c-103 4 -96 22 9 22 78 0 85 2 100 25 9 13 16 27 16 30 0 3
-34 5 -75 5 -43 0 -75 4 -75 10 0 6 35 10 84 10 78 0 85 2 100 25 9 13 16 27
16 30 0 3 -63 5 -139 5 -133 0 -139 -1 -134 -19z"/>
<path d="M3207 2661 c3 -13 -15 -50 -51 -105 l-56 -86 133 0 132 0 32 50 c28
42 30 49 15 52 -13 3 -9 8 14 21 18 9 41 32 52 52 l21 35 -148 0 c-143 0 -149
-1 -144 -19z m128 -51 c-3 -5 -17 -10 -31 -10 -13 0 -24 5 -24 10 0 6 14 10
31 10 17 0 28 -4 24 -10z m-20 -80 c-3 -5 -24 -10 -46 -10 -21 0 -39 5 -39 10
0 6 21 10 46 10 27 0 43 -4 39 -10z"/>
<path d="M3515 2660 c4 -13 -4 -34 -24 -64 -17 -24 -27 -46 -24 -50 4 -3 42
-6 87 -6 110 0 87 -18 -28 -22 -79 -3 -90 -5 -104 -25 l-14 -23 130 0 131 0
41 59 c22 33 40 62 40 65 0 4 -39 6 -86 6 -54 0 -83 4 -79 10 3 6 46 10 94 10
83 0 90 2 105 25 9 13 16 27 16 30 0 3 -66 5 -146 5 -140 0 -145 -1 -139 -20z"/>
<path d="M3815 2660 c4 -13 -9 -41 -43 -92 -27 -40 -52 -79 -56 -85 -5 -10 4
-13 36 -13 l44 0 60 92 c32 50 63 97 67 105 6 10 -5 13 -53 13 -56 0 -61 -2
-55 -20z"/>
<path d="M3936 2655 c-22 -34 -21 -35 24 -35 l41 0 -41 -60 c-59 -87 -60 -90
-11 -90 40 0 42 2 88 75 47 73 49 75 88 75 46 0 57 6 74 38 l12 22 -129 0
c-127 0 -130 -1 -146 -25z"/>
<path d="M4225 2661 c4 -14 -11 -45 -50 -103 l-55 -83 122 -3 c117 -3 123 -2
140 20 l17 23 -80 3 c-103 4 -94 22 11 22 74 0 80 2 100 28 l22 27 -81 3
c-104 4 -98 22 8 22 68 0 80 3 99 23 12 13 22 26 22 30 0 4 -63 7 -141 7 -135
0 -140 -1 -134 -19z"/>
</g>
</svg>
